<svg width="105px" height="45px" viewBox="0 0 105 45" version="1.1" xmlns="http://www.w3.org/2000/svg" xmlns:xlink="http://www.w3.org/1999/xlink">
    <g id="页面-1" stroke="none" stroke-width="1" fill="none" fill-rule="evenodd">
        <g id="Apple-TV" transform="translate(-1057.000000, -209.000000)" fill="#FFFFFF" fill-rule="nonzero">
            <g id="编组" transform="translate(1057.000000, 209.000000)">
                <g transform="translate(0.000000, 7.000000)">
                    <path d="M19.9270073,37.0898204 C18.6947188,35.3908184 17.5826535,33.6463074 16.5908115,31.8562874 C15.2382997,29.3077844 14.0210391,26.6834331 12.9390296,23.9832335 L9.06182911,23.9832335 L9.06182911,37.0898204 L0,37.0898204 L0,0.910179641 L15.3735509,0.910179641 C16.7260627,0.940518962 18.0785745,1.13772455 19.4310863,1.50179641 C21.0541005,1.98722555 22.5418635,2.7760479 23.8943753,3.86826347 C26.5392872,6.11337325 27.906827,8.98043912 27.9969944,12.4694611 C27.9669386,14.5932136 27.410906,16.5349301 26.3288965,18.2946108 C25.096608,20.1756487 23.4886217,21.6319361 21.5049377,22.6634731 C22.7672821,25.0299401 24.1348218,27.3205589 25.6075569,29.5353293 C27.3207385,32.1141717 29.1090597,34.6323353 30.9725204,37.0898204 L19.9270073,37.0898204 Z M9.06182911,17.4299401 L13.6603693,17.4299401 C15.1030485,17.4602794 16.3804208,17.0203593 17.492486,16.1101796 C18.4542722,15.2303393 18.9501932,14.1229541 18.980249,12.788024 C18.9501932,11.4834331 18.4242164,10.3912176 17.4023186,9.51137725 C16.3203091,8.66187625 15.0880206,8.22195609 13.705453,8.19161677 L9.06182911,8.19161677 L9.06182911,17.4299401 Z" id="形状"></path>
                    <path d="M50.8093602,9.64790419 C52.5826535,10.2546906 54.145556,11.1952096 55.4980678,12.4694611 C56.8205238,13.8347305 57.8123658,15.4123752 58.4735938,17.2023952 C59.1949334,19.2351297 59.5556033,21.3285429 59.5556033,23.4826347 C59.5556033,25.6670659 59.1949334,27.7756487 58.4735938,29.8083832 C57.8123658,31.5984032 56.8205238,33.1608782 55.4980678,34.4958084 C54.145556,35.8003992 52.5826535,36.7409182 50.8093602,37.3173653 C49.3366252,37.7421158 47.8488622,37.9696607 46.3460713,38 C44.8132246,37.9696607 43.3104337,37.7421158 41.8376986,37.3173653 C40.0644053,36.7409182 38.4864749,35.8003992 37.1039073,34.4958084 C35.7814513,33.1608782 34.7896093,31.5984032 34.1283813,29.8083832 C33.4070416,27.7756487 33.0613997,25.6670659 33.0914556,23.4826347 C33.0613997,21.3285429 33.4070416,19.2351297 34.1283813,17.2023952 C34.7896093,15.4123752 35.7814513,13.8347305 37.1039073,12.4694611 C38.4864749,11.1952096 40.0644053,10.2546906 41.8376986,9.64790419 C43.3104337,9.22315369 44.8132246,8.99560878 46.3460713,8.96526946 C47.8488622,8.99560878 49.3366252,9.22315369 50.8093602,9.64790419 Z M48.1494204,30.1724551 C48.7204809,29.7477046 49.201374,29.2167665 49.5920996,28.5796407 C50.0128811,27.7908184 50.3134392,26.9413174 50.4937742,26.0311377 C50.6139974,25.1816367 50.689137,24.3321357 50.7191928,23.4826347 C50.689137,22.6634731 50.6139974,21.8291417 50.4937742,20.9796407 C50.3134392,20.0694611 50.0128811,19.2199601 49.5920996,18.4311377 C49.201374,17.794012 48.7204809,17.2630739 48.1494204,16.8383234 C47.5783598,16.4742515 46.9772435,16.2770459 46.3460713,16.2467066 C45.6547875,16.2770459 45.0386432,16.4742515 44.4976385,16.8383234 C43.8965221,17.2630739 43.4006011,17.794012 43.0098755,18.4311377 C42.589094,19.2199601 42.2885359,20.0694611 42.1082009,20.9796407 C41.9879777,21.8291417 41.927866,22.6634731 41.927866,23.4826347 C41.927866,24.3321357 41.9879777,25.1816367 42.1082009,26.0311377 C42.2885359,26.9413174 42.589094,27.7908184 43.0098755,28.5796407 C43.4006011,29.2471058 43.8965221,29.7780439 44.4976385,30.1724551 C45.0386432,30.5365269 45.6547875,30.7185629 46.3460713,30.7185629 C46.9772435,30.7185629 47.5783598,30.5365269 48.1494204,30.1724551 Z" id="形状"></path>
                    <path d="M77.6792615,37.4538922 C75.8759124,37.8179641 74.0575354,38 72.2241305,38 C70.7814513,37.9696607 69.4139116,37.6966068 68.1215114,37.1808383 C66.9493345,36.6347305 65.9574925,35.8610778 65.1459854,34.8598802 C64.3344783,33.7373253 63.7784457,32.4782435 63.4778875,31.0826347 C63.2073851,29.8387226 63.0871619,28.5644711 63.1172177,27.2598802 L63.1172177,-4.04200957e-15 L71.9536282,-4.04200957e-15 L71.9536282,25.1664671 C71.8935165,26.289022 71.9536282,27.3812375 72.1339631,28.4431138 C72.2541863,29.0802395 72.5547445,29.596008 73.0356376,29.9904192 C73.4864749,30.354491 74.0124517,30.5820359 74.6135681,30.6730539 C75.3349077,30.7944112 76.0712752,30.8247505 76.8226707,30.7640719 L77.6792615,37.4538922 Z" id="路径"></path>
                    <path d="M88.1837699,25.8035928 C88.3941606,27.2295409 89.0403607,28.3976048 90.1223701,29.3077844 C90.7535423,29.7932136 91.4448261,30.1572854 92.1962216,30.4 C93.0377845,30.6427146 93.9094032,30.7489022 94.8110777,30.7185629 C96.0133104,30.7185629 97.2005152,30.5516966 98.3726921,30.2179641 C99.5749249,29.8842315 100.732074,29.4291417 101.844139,28.8526946 L103.782739,34.8598802 C102.249893,35.9520958 100.566767,36.7560878 98.733362,37.2718563 C96.9300129,37.7572854 95.1116359,38 93.278231,38 C91.1743237,38 89.1605839,37.6207585 87.2370116,36.8622754 C85.4937742,36.1037924 83.9759553,35.0267465 82.6835552,33.6311377 C81.4212108,32.1141717 80.5195363,30.4 79.9785316,28.4886228 C79.5577501,26.8502994 79.3473594,25.1816367 79.3473594,23.4826347 C79.3173036,21.2982036 79.6479176,19.1592814 80.3392014,17.0658683 C81.0004294,15.2758483 81.9922714,13.7133733 83.3147274,12.3784431 C84.697295,11.1041916 86.2902533,10.194012 88.0936024,9.64790419 C89.5963933,9.22315369 91.1442679,8.99560878 92.7372263,8.96526946 C94.1799055,8.99560878 95.592529,9.22315369 96.9750966,9.64790419 C98.6281666,10.194012 100.070846,11.089022 101.303134,12.3329341 C102.535423,13.6678643 103.452125,15.2 104.053242,16.9293413 C104.684414,18.9317365 105,20.9796407 105,23.0730539 C105,24.0135729 104.969944,24.9237525 104.909833,25.8035928 L88.1837699,25.8035928 Z M96.6595105,20.6155689 C96.5993989,19.4626747 96.2086733,18.4463074 95.4873336,17.5664671 C94.6758265,16.7169661 93.6990125,16.2770459 92.5568914,16.2467066 C91.3847145,16.3073852 90.3778446,16.7473054 89.5362817,17.5664671 C88.7247746,18.4159681 88.2589094,19.4323353 88.1386861,20.6155689 L96.6595105,20.6155689 Z" id="形状"></path>
                </g>
                <polygon id="矩形" transform="translate(45.666448, 7.233768) rotate(-62.153664) translate(-45.666448, -7.233768) " points="42.6515805 -2.54570853 48.6813158 -2.54570853 48.6813158 17.0132454 42.6515805 17.0132454"></polygon>
            </g>
        </g>
    </g>
</svg>